<svg width="800" height="800" viewBox="0 0 800 800" fill="none" xmlns="http://www.w3.org/2000/svg">
<g clip-path="url(#clip0_1_2)">
<path d="M579.221 0H220.765C99.0353 0 0 99.04 0 220.77V579.225C0 700.96 99.0353 799.995 220.765 799.995H579.221C700.96 799.995 799.995 700.955 799.995 579.225V220.77C800 99.04 700.96 0 579.221 0ZM729.021 579.225C729.021 661.822 661.822 729.016 579.225 729.016H220.765C138.173 729.02 70.9795 661.822 70.9795 579.225V220.77C70.9795 138.178 138.173 70.9795 220.765 70.9795H579.221C661.817 70.9795 729.016 138.178 729.016 220.77V579.225H729.021Z" fill="white"/>
<path d="M399.998 193.869C286.331 193.869 193.859 286.341 193.859 400.007C193.859 513.669 286.331 606.136 399.998 606.136C513.664 606.136 606.136 513.669 606.136 400.007C606.136 286.341 513.664 193.869 399.998 193.869ZM399.998 535.152C325.474 535.152 264.839 474.526 264.839 400.002C264.839 325.474 325.469 264.843 399.998 264.843C474.526 264.843 535.157 325.474 535.157 400.002C535.157 474.526 474.521 535.152 399.998 535.152Z" fill="white"/>
<path d="M614.781 133.683C601.106 133.683 587.672 139.219 578.014 148.92C568.309 158.573 562.73 172.012 562.73 185.734C562.73 199.414 568.314 212.848 578.014 222.549C587.667 232.202 601.106 237.786 614.781 237.786C628.504 237.786 641.896 232.202 651.596 222.549C661.297 212.848 666.833 199.41 666.833 185.734C666.833 172.012 661.297 158.573 651.596 148.92C641.943 139.219 628.504 133.683 614.781 133.683Z" fill="white"/>
</g>
<defs>
<clipPath id="clip0_1_2">
<rect width="800" height="800" fill="white"/>
</clipPath>
</defs>
</svg>
